PathFileType	4	(X/Y/Z)	Apose_0-50.trc
DataRate	CameraRate	NumFrames	NumMarkers	Units	OrigDataRate	OrigDataStartFrame	OrigNumFrames
30	30	6	22	m	30	40	50
Frame#	Time	Hip			RHip			RKnee			RAnkle			RBigToe			RSmallToe			RHeel			LHip			LKnee			LAnkle			LBigToe			LSmallToe			LHeel			Neck			Head			Nose			RShoulder			RElbow			RWrist			LShoulder			LElbow			LWrist		
		X1	Y1	Z1	X2	Y2	Z2	X3	Y3	Z3	X4	Y4	Z4	X5	Y5	Z5	X6	Y6	Z6	X7	Y7	Z7	X8	Y8	Z8	X9	Y9	Z9	X10	Y10	Z10	X11	Y11	Z11	X12	Y12	Z12	X13	Y13	Z13	X14	Y14	Z14	X15	Y15	Z15	X16	Y16	Z16	X17	Y17	Z17	X18	Y18	Z18	X19	Y19	Z19	X20	Y20	Z20	X21	Y21	Z21	X22	Y22	Z22
41	1.3666666666666667	0.04025813088552674	0.9249619289363545	0.3550715012592153	0.032455287797443645	0.8838271403593096	0.46179451405284594	0.006704025026389196	0.5093599474056708	0.4958268888237301	-0.005286436273083494	0.11111976928443686	0.5139361849825326	0.19838995760367736	0.03617441119246804	0.5623661643855035	0.1499994972728328	0.03206953778359632	0.6261532020559117	-0.039779401799677004	0.03778548819234323	0.5003926089611723	0.03435936667117028	0.8838458551291241	0.24282878451870094	0.014519569722430462	0.5100197944944499	0.2218651769211899	0.0055354474331721845	0.1169004061530683	0.20877829784432061	0.22067302490555155	0.048053861471222176	0.18671710702814878	0.16692513248091814	0.03542264756740683	0.12505398885762586	-0.04980396102749697	0.048638957972608324	0.20627558628843162	0.05626011727124555	1.580132869923548	0.34293326479545294	0.2109432792192265	1.810623223506101	0.32295688605312906	0.3006053767614642	1.6574334639522503	0.32876695066092654	0.02325329805008717	1.4966856277504195	0.5279137961991597	0.08279405185437529	1.2377555066212347	0.7135829017935001	0.13045310801869253	1.0466000800275406	0.8874639632786204	0.016382557647690872	1.4846421276026838	0.1462843789242192	0.028910238167909	1.2279173120169284	0.0007955280163094952	0.07848086822467651	1.0191404461323699	-0.14941427611379757
42	1.4	0.040920395051284364	0.9251435784405403	0.3553375589186034	0.03247224965168845	0.8844922844991152	0.46216013533314954	0.007014163503323779	0.5095881396862092	0.4959526974919644	-0.004388676229115338	0.11026041033893492	0.5140422633765651	0.19942224868524738	0.036999533792949506	0.5629185397845438	0.14964683972192364	0.03223013553037422	0.6263560566625586	-0.037897251485292875	0.03637551733828225	0.4991638576080766	0.03477036983964629	0.8841767467584054	0.2429157211278543	0.01496870219241163	0.5105896236502349	0.22210193554917101	0.005516076804713791	0.11764874867041883	0.20866260397945113	0.22028308116585027	0.048364791056599035	0.18676131530576312	0.16683860704591977	0.03592593556108956	0.12523948090527554	-0.05039107741699809	0.047930884105739986	0.20630360870785253	0.05672464490386005	1.580890346787772	0.34324462441759596	0.21536832839803421	1.813955607822583	0.3144931556775333	0.2973969788627565	1.6628879475370326	0.3286383231781594	0.023279925149364486	1.4966819330685188	0.5275895095065987	0.08387011792532152	1.2378822235082136	0.7131396605682259	0.13230649673397477	1.0461251706696304	0.8866643607229407	0.01659471820911192	1.4849217863922348	0.14661220306849004	0.029092458983433003	1.2276920519503045	0.0005884483826963966	0.07808172633029857	1.0184879382730772	-0.15029977693880706
43	1.4333333333333331	0.041692781905862855	0.9250834219619339	0.35573193469000897	0.032441613778070096	0.8850256553635001	0.46269546723765065	0.007595451585233259	0.5097646342636016	0.4962168834277195	-0.003971407859841146	0.10989041960088496	0.5144662953216632	0.19987322636338736	0.03749945490654034	0.5631855077416882	0.14899967714699588	0.03243179087887352	0.6264972914926576	-0.03617952332470491	0.03519952940373242	0.49819205699756564	0.03524351650001609	0.8842436953010047	0.2432184898685636	0.0156520775091445	0.5111952484023514	0.22266495663499997	0.0054067637039873955	0.1184929657694201	0.20850240257053979	0.21986682571455035	0.04859507890569074	0.18672996441464862	0.16655262082231642	0.03646845470854382	0.12537065804997977	-0.05018918597542691	0.049301056073491875	0.2054509587106275	0.05684679951451729	1.5818703098581988	0.3438520914111587	0.22072977838687413	1.816181267308694	0.3063188605278572	0.29011020566435036	1.6655630527942762	0.32878882246744295	0.02325679102908623	1.4965848910923656	0.5274988102601066	0.08455957859507597	1.2380648429532466	0.7126898092949095	0.13436277999833593	1.0457036734277696	0.8857002991781203	0.01657848224284758	1.4851516371982498	0.14690744125746297	0.02943354173830041	1.2274750411884758	0.0004038266218112432	0.07776001378858104	1.0178632057102897	-0.15117343511240738
44	1.4666666666666666	0.04247441996907074	0.9247700966036138	0.3561975351086886	0.03247300117876635	0.8853243669974967	0.4633755588741974	0.008470002707591406	0.5098749568233157	0.4965602753044896	-0.0039970464745555205	0.10998478194260701	0.515064868738786	0.19947095003712464	0.03763410207237764	0.5630617033441355	0.14812825362156964	0.0327169577583787	0.6265247720911454	-0.034959630726650086	0.034513113957842935	0.4976730081480426	0.03577742582105704	0.8839789370550037	0.24375097678100952	0.01648846852488356	0.5117793472573401	0.22351813384326558	0.005289968890769419	0.11919315707334528	0.20836788174457893	0.21954933160897555	0.04880140321492405	0.1866273544190107	0.16613637711634632	0.03700518553589399	0.12548845994395474	-0.04948499264726819	0.05213702648264141	0.20408176425724392	0.05678303465196943	1.5831653207815448	0.34471049184795416	0.22521018374354365	1.8177200737689994	0.29992732876478523	0.2797096711199909	1.6657630155083594	0.329165976000021	0.02332146326787365	1.4963609493359071	0.527744268343838	0.08504753137566373	1.2382867537110325	0.7122572731666955	0.1365022501543387	1.045421772550708	0.8847013543830146	0.01636014559454708	1.4853121142928551	0.1471707340254798	0.029943147797284315	1.227286607551532	0.00023853396235114916	0.07781140262440198	1.0175542334237058	-0.1517270326046304
45	1.5	0.043199629620713	0.9242809696527289	0.3566602080019203	0.032693585476791034	0.8853658235798217	0.4640868211430821	0.009502416706212165	0.5099195158911891	0.49688102320874206	-0.004308753803243495	0.11041453670100713	0.5156559400259093	0.19836184627557032	0.037508532385512876	0.5626060060538186	0.1471867916886651	0.033045065115423974	0.6264541205908096	-0.03442349667450904	0.03442935686391924	0.49757615764611324	0.036363466375130334	0.883468690743388	0.2444539338219446	0.017368170504958813	0.5122435878738604	0.2244965447065354	0.005216804061220339	0.11966523831168534	0.208351008884064	0.2193956677728248	0.049021780469626186	0.18640988705959677	0.16567337146587865	0.0374338344959291	0.12563671738192161	-0.048708357932844816	0.05525131793279172	0.2028221199273669	0.05666736055699098	1.5847231999373783	0.34566687511930405	0.22683203933365623	1.818913815843943	0.29680734508612777	0.2675032812622034	1.6640928721753412	0.32964764201696894	0.023536696170450816	1.4960233046838982	0.5283442764854334	0.08544788674777602	1.2384573078197982	0.7118711373758485	0.13854503858333533	1.0453197897661815	0.8838057528135748	0.015996330803789795	1.4854148725851835	0.14744609178171836	0.030555611398159113	1.2271295763260448	9.87092777092658e-05	0.07829111123058471	1.017611757682746	-0.1519537270214191
46	1.5333333333333334	0.04383035246548653	0.9237626120022483	0.35704511037779557	0.03320535642351295	0.8851361705801197	0.4646325621662168	0.010476085452798678	0.5098840797643347	0.4971168649527545	-0.004834340502575047	0.11116209097021289	0.5161138826189003	0.19704912109009276	0.037201856525329396	0.5619972204575905	0.14640210496552178	0.033286059621583444	0.6263428473905865	-0.034750580437547515	0.03501476066064565	0.4978032043798984	0.03700802466804871	0.8828828177843095	0.24520235511514485	0.018214777040351838	0.5124538360094616	0.22533454020209162	0.00511532299358349	0.12011323888207885	0.20845277329410086	0.21942184975209528	0.04921716039485868	0.18604650774572476	0.1652468479131322	0.03759697456410769	0.12585798811279356	-0.04800586498777211	0.057728689475414055	0.20210927035251947	0.056467899725801456	1.586140346023081	0.34636770481103496	0.22423152769439286	1.8199896154828559	0.29760691091126523	0.25551354304492574	1.6615367263801453	0.3301328829303867	0.023908726319579354	1.4956051696211858	0.5292697808919775	0.08586643889902595	1.2384232847847285	0.7115835810420323	0.14033396259988207	1.045362864812658	0.8831001465891654	0.01557908698601685	1.4854399054047627	0.14777157273554753	0.031184126272539987	1.2269709266796738	-5.1816834597742126e-05	0.07903522826931654	1.0178259554812974	-0.1521082278282324
